# Blender 5.0.1
# www.blender.org
o Plane
v -3.000000 0.000000 3.000000
v 3.000000 0.000000 3.000000
v -3.000000 0.000000 -3.000000
v 3.000000 0.000000 -3.000000
v -3.000000 0.019105 3.000000
v 3.000000 0.019105 3.000000
v -3.000000 0.019105 -3.000000
v 3.000000 0.019105 -3.000000
vn -0.0000 -1.0000 -0.0000
vn -0.0000 1.0000 -0.0000
vn -0.0000 -0.0000 -1.0000
vn -0.0000 -0.0000 1.0000
vn 1.0000 -0.0000 -0.0000
vn -1.0000 -0.0000 -0.0000
vt 0.000000 1.000000
vt 1.000000 0.000000
vt 0.000000 0.000000
vt 1.000000 1.000000
s 0
f 3/1/1 2/2/1 1/3/1
f 6/2/2 7/1/2 5/3/2
f 3/1/3 8/4/3 4/4/3
f 2/2/4 5/3/4 1/3/4
f 4/4/5 6/2/5 2/2/5
f 1/3/6 7/1/6 3/1/6
f 3/1/1 4/4/1 2/2/1
f 6/2/2 8/4/2 7/1/2
f 3/1/3 7/1/3 8/4/3
f 2/2/4 6/2/4 5/3/4
f 4/4/5 8/4/5 6/2/5
f 1/3/6 5/3/6 7/1/6
